<?xml version="1.0" encoding="UTF-8"?>
<!DOCTYPE score-partwise PUBLIC "-//Recordare//DTD MusicXML 4.0 Partwise//EN" "http://www.musicxml.org/dtds/partwise.dtd">
<score-partwise version="4.0">
  <work>
    <work-title>Lindaraja</work-title>
  </work>
  <identification>
    <creator type="composer">Claude Debussy</creator>
    <encoding>
      <software>MuseScore Studio 4.6.5</software>
      <encoding-date>2026-02-24</encoding-date>
      <supports element="accidental" type="yes" />
      <supports element="beam" type="yes" />
      <supports element="print" attribute="new-page" type="no" />
      <supports element="print" attribute="new-system" type="no" />
      <supports element="stem" type="yes" />
    </encoding>
    <miscellaneous>
      <miscellaneous-field name="creationDate">2025-08-14</miscellaneous-field>
      <miscellaneous-field name="platform">Apple Macintosh</miscellaneous-field>
    </miscellaneous>
  </identification>
  <part-list>
    <score-part id="P1">
      <part-name print-object="no">1er Piano</part-name>
      <part-abbreviation>1</part-abbreviation>
      <score-instrument id="P1-I1">
        <instrument-name>Piano</instrument-name>
        <instrument-sound>keyboard.piano</instrument-sound>
      </score-instrument>
      <midi-device id="P1-I1" port="1" />
      <midi-instrument id="P1-I1">
        <midi-channel>1</midi-channel>
        <midi-program>1</midi-program>
        <volume>78.7402</volume>
        <pan>0</pan>
      </midi-instrument>
    </score-part>
  </part-list>
  <part id="P1">
    <measure number="21">
      <print new-system="yes" />
      <attributes>
        <divisions>1320</divisions>
        <key>
          <fifths>-1</fifths>
        </key>
        <time print-object="no">
          <beats>2</beats>
          <beat-type>4</beat-type>
        </time>
        <staves>2</staves>
        <clef number="2">
          <sign>F</sign>
          <line>4</line>
        </clef>
        <clef number="1">
          <sign>G</sign>
          <line>2</line>
        </clef>
      </attributes>
      <direction placement="below">
        <direction-type>
          <dynamics>
            <p />
          </dynamics>
        </direction-type>
        <staff>1</staff>
        <sound dynamics="77.78" />
      </direction>
      <note>
        <rest />
        <duration>1320</duration>
        <voice>1</voice>
        <type>quarter</type>
        <staff>1</staff>
      </note>
      <note>
        <rest />
        <duration>660</duration>
        <voice>1</voice>
        <type>eighth</type>
        <staff>1</staff>
      </note>
      <note>
        <pitch>
          <step>G</step>
          <octave>3</octave>
        </pitch>
        <duration>660</duration>
        <voice>1</voice>
        <type>eighth</type>
        <stem>up</stem>
        <staff>1</staff>
        <notations>
          <articulations>
            <staccato />
          </articulations>
          <arpeggiate number="1" />
        </notations>
      </note>
      <note>
        <chord />
        <pitch>
          <step>D</step>
          <octave>4</octave>
        </pitch>
        <duration>660</duration>
        <voice>1</voice>
        <type>eighth</type>
        <stem>up</stem>
        <staff>1</staff>
        <notations>
          <arpeggiate number="1" />
        </notations>
      </note>
      <backup>
        <duration>2640</duration>
      </backup>
      <note>
        <pitch>
          <step>E</step>
          <octave>1</octave>
        </pitch>
        <duration>660</duration>
        <voice>5</voice>
        <type>eighth</type>
        <stem>up</stem>
        <staff>2</staff>
        <notations>
          <articulations>
            <staccato />
          </articulations>
        </notations>
      </note>
      <note>
        <chord />
        <pitch>
          <step>E</step>
          <octave>2</octave>
        </pitch>
        <duration>660</duration>
        <voice>5</voice>
        <type>eighth</type>
        <stem>up</stem>
        <staff>2</staff>
      </note>
      <note>
        <rest />
        <duration>660</duration>
        <voice>5</voice>
        <type>eighth</type>
        <staff>2</staff>
      </note>
      <note>
        <pitch>
          <step>E</step>
          <octave>2</octave>
        </pitch>
        <duration>660</duration>
        <voice>5</voice>
        <type>eighth</type>
        <stem>up</stem>
        <staff>2</staff>
        <beam number="1">begin</beam>
        <notations>
          <articulations>
            <staccato />
          </articulations>
          <arpeggiate number="1" />
        </notations>
      </note>
      <note>
        <chord />
        <pitch>
          <step>B</step>
          <octave>2</octave>
        </pitch>
        <duration>660</duration>
        <voice>5</voice>
        <type>eighth</type>
        <accidental>natural</accidental>
        <stem>up</stem>
        <staff>2</staff>
        <notations>
          <arpeggiate number="1" />
        </notations>
      </note>
      <note>
        <pitch>
          <step>E</step>
          <octave>2</octave>
        </pitch>
        <duration>660</duration>
        <voice>5</voice>
        <type>eighth</type>
        <stem>up</stem>
        <staff>2</staff>
        <beam number="1">end</beam>
        <notations>
          <articulations>
            <staccato />
          </articulations>
        </notations>
      </note>
    </measure>
    <measure number="22">
      <attributes>
        <measure-style number="1">
          <measure-repeat type="start">1</measure-repeat>
        </measure-style>
        <measure-style number="2">
          <measure-repeat type="start">1</measure-repeat>
        </measure-style>
      </attributes>
      <direction placement="below">
        <direction-type>
          <dynamics>
            <p />
          </dynamics>
        </direction-type>
        <staff>1</staff>
        <sound dynamics="77.78" />
      </direction>
      <note>
        <rest />
        <duration>1320</duration>
        <voice>1</voice>
        <type>quarter</type>
        <staff>1</staff>
      </note>
      <note>
        <rest />
        <duration>660</duration>
        <voice>1</voice>
        <type>eighth</type>
        <staff>1</staff>
      </note>
      <note>
        <pitch>
          <step>G</step>
          <octave>3</octave>
        </pitch>
        <duration>660</duration>
        <voice>1</voice>
        <type>eighth</type>
        <stem>up</stem>
        <staff>1</staff>
        <notations>
          <articulations>
            <staccato />
          </articulations>
          <arpeggiate number="1" />
        </notations>
      </note>
      <note>
        <chord />
        <pitch>
          <step>D</step>
          <octave>4</octave>
        </pitch>
        <duration>660</duration>
        <voice>1</voice>
        <type>eighth</type>
        <stem>up</stem>
        <staff>1</staff>
        <notations>
          <arpeggiate number="1" />
        </notations>
      </note>
      <backup>
        <duration>2640</duration>
      </backup>
      <note>
        <pitch>
          <step>E</step>
          <octave>1</octave>
        </pitch>
        <duration>660</duration>
        <voice>5</voice>
        <type>eighth</type>
        <stem>up</stem>
        <staff>2</staff>
        <notations>
          <articulations>
            <staccato />
          </articulations>
        </notations>
      </note>
      <note>
        <chord />
        <pitch>
          <step>E</step>
          <octave>2</octave>
        </pitch>
        <duration>660</duration>
        <voice>5</voice>
        <type>eighth</type>
        <stem>up</stem>
        <staff>2</staff>
      </note>
      <note>
        <rest />
        <duration>660</duration>
        <voice>5</voice>
        <type>eighth</type>
        <staff>2</staff>
      </note>
      <note>
        <pitch>
          <step>E</step>
          <octave>2</octave>
        </pitch>
        <duration>660</duration>
        <voice>5</voice>
        <type>eighth</type>
        <stem>up</stem>
        <staff>2</staff>
        <beam number="1">begin</beam>
        <notations>
          <articulations>
            <staccato />
          </articulations>
          <arpeggiate number="1" />
        </notations>
      </note>
      <note>
        <chord />
        <pitch>
          <step>B</step>
          <octave>2</octave>
        </pitch>
        <duration>660</duration>
        <voice>5</voice>
        <type>eighth</type>
        <accidental>natural</accidental>
        <stem>up</stem>
        <staff>2</staff>
        <notations>
          <arpeggiate number="1" />
        </notations>
      </note>
      <note>
        <pitch>
          <step>E</step>
          <octave>2</octave>
        </pitch>
        <duration>660</duration>
        <voice>5</voice>
        <type>eighth</type>
        <stem>up</stem>
        <staff>2</staff>
        <beam number="1">end</beam>
        <notations>
          <articulations>
            <staccato />
          </articulations>
        </notations>
      </note>
    </measure>
    <measure number="23">
      <direction placement="below">
        <direction-type>
          <dynamics>
            <p />
          </dynamics>
        </direction-type>
        <staff>1</staff>
        <sound dynamics="77.78" />
      </direction>
      <note>
        <rest />
        <duration>1320</duration>
        <voice>1</voice>
        <type>quarter</type>
        <staff>1</staff>
      </note>
      <note>
        <rest />
        <duration>660</duration>
        <voice>1</voice>
        <type>eighth</type>
        <staff>1</staff>
      </note>
      <note>
        <pitch>
          <step>G</step>
          <octave>3</octave>
        </pitch>
        <duration>660</duration>
        <voice>1</voice>
        <type>eighth</type>
        <stem>up</stem>
        <staff>1</staff>
        <notations>
          <articulations>
            <staccato />
          </articulations>
          <arpeggiate number="1" />
        </notations>
      </note>
      <note>
        <chord />
        <pitch>
          <step>D</step>
          <octave>4</octave>
        </pitch>
        <duration>660</duration>
        <voice>1</voice>
        <type>eighth</type>
        <stem>up</stem>
        <staff>1</staff>
        <notations>
          <arpeggiate number="1" />
        </notations>
      </note>
      <backup>
        <duration>2640</duration>
      </backup>
      <note>
        <pitch>
          <step>E</step>
          <octave>1</octave>
        </pitch>
        <duration>660</duration>
        <voice>5</voice>
        <type>eighth</type>
        <stem>up</stem>
        <staff>2</staff>
        <notations>
          <articulations>
            <staccato />
          </articulations>
        </notations>
      </note>
      <note>
        <chord />
        <pitch>
          <step>E</step>
          <octave>2</octave>
        </pitch>
        <duration>660</duration>
        <voice>5</voice>
        <type>eighth</type>
        <stem>up</stem>
        <staff>2</staff>
      </note>
      <note>
        <rest />
        <duration>660</duration>
        <voice>5</voice>
        <type>eighth</type>
        <staff>2</staff>
      </note>
      <note>
        <pitch>
          <step>E</step>
          <octave>2</octave>
        </pitch>
        <duration>660</duration>
        <voice>5</voice>
        <type>eighth</type>
        <stem>up</stem>
        <staff>2</staff>
        <beam number="1">begin</beam>
        <notations>
          <articulations>
            <staccato />
          </articulations>
          <arpeggiate number="1" />
        </notations>
      </note>
      <note>
        <chord />
        <pitch>
          <step>B</step>
          <octave>2</octave>
        </pitch>
        <duration>660</duration>
        <voice>5</voice>
        <type>eighth</type>
        <accidental>natural</accidental>
        <stem>up</stem>
        <staff>2</staff>
        <notations>
          <arpeggiate number="1" />
        </notations>
      </note>
      <note>
        <pitch>
          <step>E</step>
          <octave>2</octave>
        </pitch>
        <duration>660</duration>
        <voice>5</voice>
        <type>eighth</type>
        <stem>up</stem>
        <staff>2</staff>
        <beam number="1">end</beam>
        <notations>
          <articulations>
            <staccato />
          </articulations>
        </notations>
      </note>
    </measure>
    <measure number="24">
      <attributes>
        <measure-style number="1">
          <measure-repeat type="stop" />
        </measure-style>
        <measure-style number="2">
          <measure-repeat type="stop" />
        </measure-style>
      </attributes>
      <note>
        <rest measure="yes" />
        <duration>2640</duration>
        <voice>1</voice>
        <staff>1</staff>
      </note>
      <backup>
        <duration>2640</duration>
      </backup>
      <note>
        <pitch>
          <step>E</step>
          <octave>1</octave>
        </pitch>
        <duration>660</duration>
        <voice>5</voice>
        <type>eighth</type>
        <stem>up</stem>
        <staff>2</staff>
      </note>
      <note>
        <chord />
        <pitch>
          <step>E</step>
          <octave>2</octave>
        </pitch>
        <duration>660</duration>
        <voice>5</voice>
        <type>eighth</type>
        <stem>up</stem>
        <staff>2</staff>
      </note>
      <note>
        <rest />
        <duration>660</duration>
        <voice>5</voice>
        <type>eighth</type>
        <staff>2</staff>
      </note>
      <direction placement="above">
        <direction-type>
          <wedge type="crescendo" number="2" />
        </direction-type>
        <staff>2</staff>
      </direction>
      <note>
        <pitch>
          <step>E</step>
          <octave>2</octave>
        </pitch>
        <duration>440</duration>
        <voice>5</voice>
        <type>eighth</type>
        <time-modification>
          <actual-notes>3</actual-notes>
          <normal-notes>2</normal-notes>
        </time-modification>
        <stem>up</stem>
        <staff>2</staff>
        <beam number="1">begin</beam>
        <notations>
          <tuplet type="start" bracket="no" />
        </notations>
      </note>
      <note>
        <chord />
        <pitch>
          <step>B</step>
          <octave>2</octave>
        </pitch>
        <duration>440</duration>
        <voice>5</voice>
        <type>eighth</type>
        <accidental>natural</accidental>
        <time-modification>
          <actual-notes>3</actual-notes>
          <normal-notes>2</normal-notes>
        </time-modification>
        <stem>up</stem>
        <staff>2</staff>
      </note>
      <note>
        <pitch>
          <step>F</step>
          <octave>2</octave>
        </pitch>
        <duration>440</duration>
        <voice>5</voice>
        <type>eighth</type>
        <time-modification>
          <actual-notes>3</actual-notes>
          <normal-notes>2</normal-notes>
        </time-modification>
        <stem>up</stem>
        <staff>2</staff>
        <beam number="1">continue</beam>
      </note>
      <note>
        <chord />
        <pitch>
          <step>B</step>
          <octave>2</octave>
        </pitch>
        <duration>440</duration>
        <voice>5</voice>
        <type>eighth</type>
        <time-modification>
          <actual-notes>3</actual-notes>
          <normal-notes>2</normal-notes>
        </time-modification>
        <stem>up</stem>
        <staff>2</staff>
      </note>
      <note>
        <pitch>
          <step>G</step>
          <octave>2</octave>
        </pitch>
        <duration>440</duration>
        <voice>5</voice>
        <type>eighth</type>
        <time-modification>
          <actual-notes>3</actual-notes>
          <normal-notes>2</normal-notes>
        </time-modification>
        <stem>up</stem>
        <staff>2</staff>
        <beam number="1">end</beam>
        <notations>
          <tuplet type="stop" />
        </notations>
      </note>
      <note>
        <chord />
        <pitch>
          <step>B</step>
          <octave>2</octave>
        </pitch>
        <duration>440</duration>
        <voice>5</voice>
        <type>eighth</type>
        <time-modification>
          <actual-notes>3</actual-notes>
          <normal-notes>2</normal-notes>
        </time-modification>
        <stem>up</stem>
        <staff>2</staff>
      </note>
      <direction placement="above">
        <direction-type>
          <wedge type="stop" number="2" />
        </direction-type>
        <staff>2</staff>
      </direction>
    </measure>
    <measure number="25">
      <direction placement="below">
        <direction-type>
          <dynamics>
            <sf />
          </dynamics>
        </direction-type>
        <staff>1</staff>
        <sound dynamics="124.44" />
      </direction>
      <note>
        <rest />
        <duration>1320</duration>
        <voice>1</voice>
        <type>quarter</type>
        <staff>1</staff>
      </note>
      <direction placement="below">
        <direction-type>
          <dynamics>
            <p />
          </dynamics>
        </direction-type>
        <staff>1</staff>
        <sound dynamics="77.78" />
      </direction>
      <direction placement="below">
        <direction-type>
          <wedge type="crescendo" number="2" />
        </direction-type>
        <staff>1</staff>
      </direction>
      <note>
        <pitch>
          <step>F</step>
          <octave>4</octave>
        </pitch>
        <duration>220</duration>
        <voice>1</voice>
        <type>16th</type>
        <time-modification>
          <actual-notes>6</actual-notes>
          <normal-notes>4</normal-notes>
        </time-modification>
        <stem>up</stem>
        <staff>1</staff>
        <beam number="1">begin</beam>
        <beam number="2">begin</beam>
        <notations>
          <tuplet type="start" bracket="no" />
          <slur type="start" orientation="under" placement="below" number="1" />
        </notations>
      </note>
      <note>
        <pitch>
          <step>G</step>
          <octave>4</octave>
        </pitch>
        <duration>220</duration>
        <voice>1</voice>
        <type>16th</type>
        <time-modification>
          <actual-notes>6</actual-notes>
          <normal-notes>4</normal-notes>
        </time-modification>
        <stem>up</stem>
        <staff>1</staff>
        <beam number="1">continue</beam>
        <beam number="2">continue</beam>
      </note>
      <note>
        <pitch>
          <step>A</step>
          <octave>4</octave>
        </pitch>
        <duration>220</duration>
        <voice>1</voice>
        <type>16th</type>
        <time-modification>
          <actual-notes>6</actual-notes>
          <normal-notes>4</normal-notes>
        </time-modification>
        <stem>up</stem>
        <staff>1</staff>
        <beam number="1">continue</beam>
        <beam number="2">continue</beam>
      </note>
      <note>
        <pitch>
          <step>B</step>
          <octave>4</octave>
        </pitch>
        <duration>220</duration>
        <voice>1</voice>
        <type>16th</type>
        <accidental>natural</accidental>
        <time-modification>
          <actual-notes>6</actual-notes>
          <normal-notes>4</normal-notes>
        </time-modification>
        <stem>up</stem>
        <staff>1</staff>
        <beam number="1">continue</beam>
        <beam number="2">continue</beam>
      </note>
      <note>
        <pitch>
          <step>C</step>
          <octave>5</octave>
        </pitch>
        <duration>220</duration>
        <voice>1</voice>
        <type>16th</type>
        <time-modification>
          <actual-notes>6</actual-notes>
          <normal-notes>4</normal-notes>
        </time-modification>
        <stem>up</stem>
        <staff>1</staff>
        <beam number="1">continue</beam>
        <beam number="2">continue</beam>
      </note>
      <note>
        <pitch>
          <step>B</step>
          <octave>4</octave>
        </pitch>
        <duration>220</duration>
        <voice>1</voice>
        <type>16th</type>
        <time-modification>
          <actual-notes>6</actual-notes>
          <normal-notes>4</normal-notes>
        </time-modification>
        <stem>up</stem>
        <staff>1</staff>
        <beam number="1">end</beam>
        <beam number="2">end</beam>
        <notations>
          <tuplet type="stop" />
          <slur type="stop" number="1" />
        </notations>
      </note>
      <direction placement="below">
        <direction-type>
          <wedge type="stop" number="2" />
        </direction-type>
        <staff>1</staff>
      </direction>
      <backup>
        <duration>2640</duration>
      </backup>
      <note>
        <pitch>
          <step>A</step>
          <octave>2</octave>
        </pitch>
        <duration>660</duration>
        <voice>5</voice>
        <type>eighth</type>
        <stem>up</stem>
        <staff>2</staff>
      </note>
      <note>
        <chord />
        <pitch>
          <step>B</step>
          <octave>2</octave>
        </pitch>
        <duration>660</duration>
        <voice>5</voice>
        <type>eighth</type>
        <accidental>natural</accidental>
        <stem>up</stem>
        <staff>2</staff>
      </note>
      <note>
        <rest />
        <duration>660</duration>
        <voice>5</voice>
        <type>eighth</type>
        <staff>2</staff>
      </note>
      <attributes>
        <clef number="2">
          <sign>G</sign>
          <line>2</line>
        </clef>
      </attributes>
      <note>
        <pitch>
          <step>D</step>
          <octave>4</octave>
        </pitch>
        <duration>220</duration>
        <voice>5</voice>
        <type>16th</type>
        <time-modification>
          <actual-notes>6</actual-notes>
          <normal-notes>4</normal-notes>
        </time-modification>
        <stem>up</stem>
        <staff>2</staff>
        <beam number="1">begin</beam>
        <beam number="2">begin</beam>
        <notations>
          <tuplet type="start" bracket="no" />
          <slur type="start" orientation="under" placement="below" number="1" />
        </notations>
      </note>
      <note>
        <pitch>
          <step>E</step>
          <alter>-1</alter>
          <octave>4</octave>
        </pitch>
        <duration>220</duration>
        <voice>5</voice>
        <type>16th</type>
        <accidental>flat</accidental>
        <time-modification>
          <actual-notes>6</actual-notes>
          <normal-notes>4</normal-notes>
        </time-modification>
        <stem>up</stem>
        <staff>2</staff>
        <beam number="1">continue</beam>
        <beam number="2">continue</beam>
      </note>
      <note>
        <pitch>
          <step>F</step>
          <octave>4</octave>
        </pitch>
        <duration>220</duration>
        <voice>5</voice>
        <type>16th</type>
        <time-modification>
          <actual-notes>6</actual-notes>
          <normal-notes>4</normal-notes>
        </time-modification>
        <stem>up</stem>
        <staff>2</staff>
        <beam number="1">continue</beam>
        <beam number="2">continue</beam>
      </note>
      <note>
        <pitch>
          <step>G</step>
          <octave>4</octave>
        </pitch>
        <duration>220</duration>
        <voice>5</voice>
        <type>16th</type>
        <time-modification>
          <actual-notes>6</actual-notes>
          <normal-notes>4</normal-notes>
        </time-modification>
        <stem>up</stem>
        <staff>2</staff>
        <beam number="1">continue</beam>
        <beam number="2">continue</beam>
      </note>
      <note>
        <pitch>
          <step>A</step>
          <octave>4</octave>
        </pitch>
        <duration>220</duration>
        <voice>5</voice>
        <type>16th</type>
        <time-modification>
          <actual-notes>6</actual-notes>
          <normal-notes>4</normal-notes>
        </time-modification>
        <stem>up</stem>
        <staff>2</staff>
        <beam number="1">continue</beam>
        <beam number="2">continue</beam>
      </note>
      <note>
        <pitch>
          <step>G</step>
          <octave>4</octave>
        </pitch>
        <duration>220</duration>
        <voice>5</voice>
        <type>16th</type>
        <time-modification>
          <actual-notes>6</actual-notes>
          <normal-notes>4</normal-notes>
        </time-modification>
        <stem>up</stem>
        <staff>2</staff>
        <beam number="1">end</beam>
        <beam number="2">end</beam>
        <notations>
          <tuplet type="stop" />
          <slur type="stop" number="1" />
        </notations>
      </note>
    </measure>
    <measure number="26">
      <direction placement="below">
        <direction-type>
          <wedge type="diminuendo" number="2" />
        </direction-type>
        <staff>1</staff>
      </direction>
      <note>
        <pitch>
          <step>A</step>
          <octave>4</octave>
        </pitch>
        <duration>660</duration>
        <voice>1</voice>
        <type>eighth</type>
        <stem>up</stem>
        <staff>1</staff>
        <beam number="1">begin</beam>
        <notations>
          <slur type="start" orientation="under" placement="below" number="1" />
          <articulations>
            <staccato />
          </articulations>
        </notations>
      </note>
      <note>
        <pitch>
          <step>G</step>
          <octave>4</octave>
        </pitch>
        <duration>660</duration>
        <voice>1</voice>
        <type>eighth</type>
        <stem>up</stem>
        <staff>1</staff>
        <beam number="1">end</beam>
        <notations>
          <slur type="stop" number="1" />
          <articulations>
            <staccato />
          </articulations>
        </notations>
      </note>
      <direction placement="below">
        <direction-type>
          <wedge type="stop" number="2" />
        </direction-type>
        <staff>1</staff>
      </direction>
      <note>
        <grace />
        <pitch>
          <step>A</step>
          <octave>4</octave>
        </pitch>
        <voice>1</voice>
        <type>32nd</type>
        <stem>up</stem>
        <staff>1</staff>
        <beam number="1">begin</beam>
        <beam number="2">begin</beam>
        <beam number="3">begin</beam>
        <notations>
          <slur type="start" orientation="under" placement="below" number="1" />
        </notations>
      </note>
      <note>
        <grace />
        <pitch>
          <step>G</step>
          <octave>4</octave>
        </pitch>
        <voice>1</voice>
        <type>32nd</type>
        <stem>up</stem>
        <staff>1</staff>
        <beam number="1">end</beam>
        <beam number="2">end</beam>
        <beam number="3">end</beam>
      </note>
      <note>
        <pitch>
          <step>F</step>
          <octave>4</octave>
        </pitch>
        <duration>1320</duration>
        <tie type="start" />
        <voice>1</voice>
        <type>quarter</type>
        <stem>up</stem>
        <staff>1</staff>
        <notations>
          <tied type="start" />
          <slur type="stop" number="1" />
        </notations>
      </note>
      <backup>
        <duration>2640</duration>
      </backup>
      <note>
        <pitch>
          <step>F</step>
          <octave>4</octave>
        </pitch>
        <duration>660</duration>
        <voice>5</voice>
        <type>eighth</type>
        <stem>up</stem>
        <staff>2</staff>
        <beam number="1">begin</beam>
        <notations>
          <slur type="start" orientation="under" placement="below" number="1" />
          <articulations>
            <staccato />
          </articulations>
        </notations>
      </note>
      <note>
        <pitch>
          <step>E</step>
          <alter>-1</alter>
          <octave>4</octave>
        </pitch>
        <duration>660</duration>
        <voice>5</voice>
        <type>eighth</type>
        <accidental>flat</accidental>
        <stem>up</stem>
        <staff>2</staff>
        <beam number="1">end</beam>
        <notations>
          <slur type="stop" number="1" />
          <articulations>
            <staccato />
          </articulations>
        </notations>
      </note>
      <note>
        <pitch>
          <step>D</step>
          <octave>4</octave>
        </pitch>
        <duration>1320</duration>
        <tie type="start" />
        <voice>5</voice>
        <type>quarter</type>
        <stem>up</stem>
        <staff>2</staff>
        <notations>
          <tied type="start" />
        </notations>
      </note>
    </measure>
    <measure number="27">
      <direction placement="below">
        <direction-type>
          <wedge type="crescendo" number="2" />
        </direction-type>
        <staff>1</staff>
      </direction>
      <note>
        <pitch>
          <step>F</step>
          <octave>4</octave>
        </pitch>
        <duration>330</duration>
        <tie type="stop" />
        <voice>1</voice>
        <type>16th</type>
        <stem>up</stem>
        <staff>1</staff>
        <beam number="1">begin</beam>
        <beam number="2">begin</beam>
        <notations>
          <tied type="stop" />
        </notations>
      </note>
      <note>
        <pitch>
          <step>G</step>
          <octave>4</octave>
        </pitch>
        <duration>330</duration>
        <voice>1</voice>
        <type>16th</type>
        <stem>up</stem>
        <staff>1</staff>
        <beam number="1">continue</beam>
        <beam number="2">continue</beam>
        <notations>
          <articulations>
            <staccato />
          </articulations>
        </notations>
      </note>
      <note>
        <pitch>
          <step>A</step>
          <octave>4</octave>
        </pitch>
        <duration>330</duration>
        <voice>1</voice>
        <type>16th</type>
        <stem>up</stem>
        <staff>1</staff>
        <beam number="1">continue</beam>
        <beam number="2">continue</beam>
        <notations>
          <articulations>
            <staccato />
          </articulations>
        </notations>
      </note>
      <note>
        <pitch>
          <step>B</step>
          <octave>4</octave>
        </pitch>
        <duration>330</duration>
        <voice>1</voice>
        <type>16th</type>
        <accidental>natural</accidental>
        <stem>up</stem>
        <staff>1</staff>
        <beam number="1">end</beam>
        <beam number="2">end</beam>
        <notations>
          <articulations>
            <staccato />
          </articulations>
        </notations>
      </note>
      <direction placement="below">
        <direction-type>
          <wedge type="stop" number="2" />
        </direction-type>
        <staff>1</staff>
      </direction>
      <note>
        <grace slash="yes" />
        <pitch>
          <step>B</step>
          <octave>4</octave>
        </pitch>
        <voice>1</voice>
        <type>eighth</type>
        <stem>up</stem>
        <staff>1</staff>
        <notations>
          <slur type="start" orientation="under" placement="below" number="1" />
        </notations>
      </note>
      <note>
        <pitch>
          <step>G</step>
          <octave>4</octave>
        </pitch>
        <duration>1320</duration>
        <tie type="start" />
        <voice>1</voice>
        <type>quarter</type>
        <stem>up</stem>
        <staff>1</staff>
        <notations>
          <tied type="start" />
          <slur type="stop" number="1" />
          <articulations>
            <accent />
          </articulations>
        </notations>
      </note>
      <backup>
        <duration>2640</duration>
      </backup>
      <note>
        <pitch>
          <step>D</step>
          <octave>4</octave>
        </pitch>
        <duration>330</duration>
        <tie type="stop" />
        <voice>5</voice>
        <type>16th</type>
        <stem>up</stem>
        <staff>2</staff>
        <beam number="1">begin</beam>
        <beam number="2">begin</beam>
        <notations>
          <tied type="stop" />
        </notations>
      </note>
      <note>
        <pitch>
          <step>E</step>
          <alter>-1</alter>
          <octave>4</octave>
        </pitch>
        <duration>330</duration>
        <voice>5</voice>
        <type>16th</type>
        <accidental>flat</accidental>
        <stem>up</stem>
        <staff>2</staff>
        <beam number="1">continue</beam>
        <beam number="2">continue</beam>
        <notations>
          <articulations>
            <staccato />
          </articulations>
        </notations>
      </note>
      <note>
        <pitch>
          <step>F</step>
          <octave>4</octave>
        </pitch>
        <duration>330</duration>
        <voice>5</voice>
        <type>16th</type>
        <stem>up</stem>
        <staff>2</staff>
        <beam number="1">continue</beam>
        <beam number="2">continue</beam>
        <notations>
          <articulations>
            <staccato />
          </articulations>
        </notations>
      </note>
      <note>
        <pitch>
          <step>G</step>
          <octave>4</octave>
        </pitch>
        <duration>330</duration>
        <voice>5</voice>
        <type>16th</type>
        <stem>up</stem>
        <staff>2</staff>
        <beam number="1">end</beam>
        <beam number="2">end</beam>
        <notations>
          <articulations>
            <staccato />
          </articulations>
        </notations>
      </note>
      <note>
        <pitch>
          <step>E</step>
          <alter>-1</alter>
          <octave>4</octave>
        </pitch>
        <duration>1320</duration>
        <tie type="start" />
        <voice>5</voice>
        <type>quarter</type>
        <stem>up</stem>
        <staff>2</staff>
        <notations>
          <tied type="start" />
        </notations>
      </note>
    </measure>
    <measure number="28">
      <direction placement="below">
        <direction-type>
          <wedge type="crescendo" number="2" />
        </direction-type>
        <staff>1</staff>
      </direction>
      <note>
        <pitch>
          <step>G</step>
          <octave>4</octave>
        </pitch>
        <duration>330</duration>
        <tie type="stop" />
        <voice>1</voice>
        <type>16th</type>
        <stem>up</stem>
        <staff>1</staff>
        <beam number="1">begin</beam>
        <beam number="2">begin</beam>
        <notations>
          <tied type="stop" />
        </notations>
      </note>
      <note>
        <pitch>
          <step>A</step>
          <octave>4</octave>
        </pitch>
        <duration>330</duration>
        <voice>1</voice>
        <type>16th</type>
        <stem>up</stem>
        <staff>1</staff>
        <beam number="1">continue</beam>
        <beam number="2">continue</beam>
        <notations>
          <articulations>
            <staccato />
          </articulations>
        </notations>
      </note>
      <note>
        <pitch>
          <step>B</step>
          <octave>4</octave>
        </pitch>
        <duration>330</duration>
        <voice>1</voice>
        <type>16th</type>
        <accidental>natural</accidental>
        <stem>up</stem>
        <staff>1</staff>
        <beam number="1">continue</beam>
        <beam number="2">continue</beam>
        <notations>
          <articulations>
            <staccato />
          </articulations>
        </notations>
      </note>
      <note>
        <pitch>
          <step>D</step>
          <alter>1</alter>
          <octave>5</octave>
        </pitch>
        <duration>330</duration>
        <voice>1</voice>
        <type>16th</type>
        <accidental>sharp</accidental>
        <stem>up</stem>
        <staff>1</staff>
        <beam number="1">end</beam>
        <beam number="2">end</beam>
        <notations>
          <articulations>
            <staccato />
          </articulations>
        </notations>
      </note>
      <direction placement="below">
        <direction-type>
          <wedge type="stop" number="2" />
        </direction-type>
        <staff>1</staff>
      </direction>
      <direction placement="below">
        <direction-type>
          <wedge type="diminuendo" number="2" />
        </direction-type>
        <staff>1</staff>
      </direction>
      <note>
        <grace />
        <pitch>
          <step>B</step>
          <octave>4</octave>
        </pitch>
        <voice>1</voice>
        <type>32nd</type>
        <stem>up</stem>
        <staff>1</staff>
        <beam number="1">begin</beam>
        <beam number="2">begin</beam>
        <beam number="3">begin</beam>
        <notations>
          <slur type="start" orientation="under" placement="below" number="1" />
        </notations>
      </note>
      <note>
        <grace />
        <pitch>
          <step>A</step>
          <octave>4</octave>
        </pitch>
        <voice>1</voice>
        <type>32nd</type>
        <stem>up</stem>
        <staff>1</staff>
        <beam number="1">end</beam>
        <beam number="2">end</beam>
        <beam number="3">end</beam>
      </note>
      <note>
        <pitch>
          <step>F</step>
          <octave>4</octave>
        </pitch>
        <duration>1320</duration>
        <voice>1</voice>
        <type>quarter</type>
        <stem>up</stem>
        <staff>1</staff>
        <notations>
          <slur type="stop" number="1" />
        </notations>
      </note>
      <direction placement="below">
        <direction-type>
          <wedge type="stop" number="2" />
        </direction-type>
        <staff>1</staff>
      </direction>
      <backup>
        <duration>2640</duration>
      </backup>
      <note>
        <pitch>
          <step>E</step>
          <alter>-1</alter>
          <octave>4</octave>
        </pitch>
        <duration>330</duration>
        <tie type="stop" />
        <voice>5</voice>
        <type>16th</type>
        <stem>up</stem>
        <staff>2</staff>
        <beam number="1">begin</beam>
        <beam number="2">begin</beam>
        <notations>
          <tied type="stop" />
        </notations>
      </note>
      <note>
        <pitch>
          <step>F</step>
          <octave>4</octave>
        </pitch>
        <duration>330</duration>
        <voice>5</voice>
        <type>16th</type>
        <stem>up</stem>
        <staff>2</staff>
        <beam number="1">continue</beam>
        <beam number="2">continue</beam>
        <notations>
          <articulations>
            <staccato />
          </articulations>
        </notations>
      </note>
      <note>
        <pitch>
          <step>G</step>
          <octave>4</octave>
        </pitch>
        <duration>330</duration>
        <voice>5</voice>
        <type>16th</type>
        <stem>up</stem>
        <staff>2</staff>
        <beam number="1">continue</beam>
        <beam number="2">continue</beam>
        <notations>
          <articulations>
            <staccato />
          </articulations>
        </notations>
      </note>
      <note>
        <pitch>
          <step>B</step>
          <octave>4</octave>
        </pitch>
        <duration>330</duration>
        <voice>5</voice>
        <type>16th</type>
        <accidental>natural</accidental>
        <stem>up</stem>
        <staff>2</staff>
        <beam number="1">end</beam>
        <beam number="2">end</beam>
        <notations>
          <articulations>
            <staccato />
          </articulations>
        </notations>
      </note>
      <note>
        <pitch>
          <step>D</step>
          <octave>4</octave>
        </pitch>
        <duration>1320</duration>
        <voice>5</voice>
        <type>quarter</type>
        <stem>up</stem>
        <staff>2</staff>
      </note>
    </measure>
  </part>
</score-partwise>